<?xml version="1.0" standalone="no"?>
<!DOCTYPE svg PUBLIC "-//W3C//DTD SVG 20010904//EN"
 "http://www.w3.org/TR/2001/REC-SVG-20010904/DTD/svg10.dtd">
<svg version="1.0" xmlns="http://www.w3.org/2000/svg"
 width="1024.000000pt" height="1536.000000pt" viewBox="0 0 1024.000000 1536.000000"
 preserveAspectRatio="xMidYMid meet">

<g transform="translate(0.000000,1536.000000) scale(0.100000,-0.100000)"
fill="#000000" stroke="none">
<path d="M0 7680 l0 -7680 5120 0 5120 0 0 7680 0 7680 -5120 0 -5120 0 0
-7680z m5435 4121 c147 -32 223 -59 360 -126 553 -272 879 -824 852 -1444 -10
-223 -56 -400 -156 -606 -150 -306 -389 -545 -699 -699 -476 -237 -1097 -198
-1525 96 -345 238 -564 562 -648 958 -31 144 -33 446 -5 595 119 636 600 1121
1226 1235 142 27 459 22 595 -9z m-1971 -1992 c19 -15 26 -30 26 -53 0 -66 10
-64 -455 -68 l-420 -3 -56 -28 c-67 -32 -109 -86 -120 -155 -4 -26 -8 -733 -8
-1572 l-1 -1525 2685 3 2685 2 0 1531 c0 1129 -3 1542 -12 1576 -8 32 -25 61
-57 94 -75 77 -88 79 -552 79 -441 0 -429 -2 -429 66 0 21 8 42 20 54 19 19
33 20 423 20 438 0 497 -6 581 -55 57 -34 121 -103 149 -163 l22 -47 3 -1652
2 -1653 -2835 0 -2835 0 0 1638 c0 1448 2 1644 15 1690 31 104 139 199 259
228 36 9 173 13 467 13 407 1 417 1 443 -20z m1945 -1355 c35 -45 66 62 -294
-1039 -97 -296 -160 -474 -171 -482 -21 -15 -68 -17 -94 -3 -10 5 -22 23 -28
38 -8 24 -3 52 33 163 304 939 430 1317 443 1332 24 28 86 23 111 -9z m-864
-179 c24 -23 31 -57 19 -89 -3 -9 -58 -57 -121 -108 -134 -106 -423 -329 -454
-350 l-22 -14 27 -17 c46 -30 499 -388 539 -426 47 -45 49 -79 6 -115 -41 -35
-68 -33 -126 12 -280 213 -637 500 -645 518 -14 29 3 72 40 107 15 13 101 81
192 149 91 69 232 177 315 242 163 127 186 136 230 91z m1447 -142 c481 -376
491 -386 472 -442 -16 -45 -687 -561 -729 -561 -54 0 -92 70 -65 121 6 10 75
67 153 126 132 99 413 316 429 332 4 4 -18 26 -50 51 -199 153 -482 378 -509
403 -41 38 -43 77 -8 112 16 17 35 25 59 25 29 0 66 -25 248 -167z m-2902
-1980 c624 -2 1144 -5 1156 -8 12 -3 32 -26 49 -57 16 -29 46 -79 67 -110 l39
-58 77 -1 c281 -5 1276 -4 1316 0 l48 6 64 105 c35 57 70 107 77 111 7 4 540
9 1185 10 931 1 1175 -1 1187 -11 12 -10 15 -36 15 -120 0 -139 -12 -199 -56
-287 -61 -122 -164 -205 -309 -250 -58 -17 -171 -18 -2890 -18 l-2830 0 -70
22 c-218 69 -337 234 -352 489 -4 68 -2 112 7 138 12 39 43 60 70 48 8 -4 526
-8 1150 -9z m222 -1243 c80 -30 157 -102 194 -182 27 -60 29 -70 29 -199 l0
-135 -38 -78 c-32 -64 -49 -85 -98 -121 -81 -60 -116 -70 -239 -70 -92 0 -112
3 -160 26 -81 39 -134 90 -172 167 -31 63 -33 74 -36 194 -4 111 -1 135 19
195 18 56 33 79 84 130 50 50 73 65 126 82 83 27 207 24 291 -9z m2949 -3 c72
-35 135 -98 167 -167 45 -95 47 -322 3 -412 -35 -74 -95 -134 -169 -170 -62
-31 -74 -33 -167 -33 -87 0 -107 3 -157 27 -123 58 -193 158 -212 306 -20 166
22 312 115 396 76 69 132 87 259 83 91 -2 112 -6 161 -30z m1781 13 c98 -29
182 -120 218 -237 27 -89 27 -227 0 -317 -26 -83 -104 -172 -188 -213 -51 -25
-67 -28 -162 -28 -101 0 -108 1 -168 34 -77 42 -134 104 -164 180 -20 49 -23
74 -23 196 0 124 3 146 22 188 48 103 128 175 225 202 58 16 176 14 240 -5z
m-5530 -23 c103 -51 144 -127 136 -255 -4 -84 -36 -138 -106 -183 -64 -41
-101 -49 -219 -49 l-103 0 0 -133 c0 -90 -4 -137 -12 -145 -7 -7 -31 -12 -54
-12 -77 0 -74 -16 -74 409 0 288 3 380 13 390 9 9 55 12 187 9 168 -3 177 -4
232 -31z m1562 19 c112 -34 175 -109 183 -220 8 -88 -15 -153 -72 -205 -25
-23 -49 -41 -55 -41 -6 0 25 -67 67 -149 89 -169 89 -181 3 -181 -58 0 -58 0
-144 160 -37 69 -71 129 -75 133 -4 4 -38 5 -74 1 l-67 -7 0 -133 c0 -122 -2
-134 -19 -144 -27 -14 -94 -13 -109 2 -17 17 -17 769 0 786 18 18 301 16 362
-2z m900 -2 c22 -22 20 -80 -3 -103 -15 -15 -34 -19 -87 -19 -38 0 -84 -1
-101 -1 l-33 -1 0 -323 c0 -238 -3 -326 -12 -335 -13 -13 -86 -16 -105 -4 -10
6 -13 89 -15 336 l-3 328 -95 0 c-120 0 -130 5 -130 66 0 27 5 53 12 60 9 9
86 12 284 12 234 0 275 -2 288 -16z m620 0 c19 -19 21 -73 4 -97 -11 -15 -35
-18 -175 -20 l-163 -2 0 -107 0 -108 140 0 c155 0 154 1 154 -67 0 -53 -12
-58 -159 -61 l-135 -4 0 -148 c0 -122 -3 -151 -16 -164 -18 -19 -94 -22 -112
-4 -9 9 -12 110 -12 393 0 283 3 384 12 393 9 9 74 12 229 12 184 0 220 -2
233 -16z m1164 4 c9 -9 12 -97 12 -335 l0 -323 149 0 c170 0 181 -4 181 -70 0
-70 -4 -71 -248 -68 l-217 3 -3 390 c-1 214 0 396 3 402 6 17 107 17 123 1z
m620 -383 c2 -358 1 -391 -15 -402 -21 -16 -95 -17 -111 -1 -18 18 -17 769 0
786 8 8 34 12 68 10 l55 -3 3 -390z"/>
<path d="M4975 11671 c-331 -39 -604 -169 -830 -396 -414 -417 -523 -1070
-265 -1586 76 -151 226 -349 340 -447 112 -97 303 -203 460 -255 533 -176
1132 -10 1483 411 223 268 337 575 337 909 -1 575 -357 1082 -907 1289 -156
59 -449 94 -618 75z m296 -382 c158 -45 279 -175 323 -346 19 -72 21 -265 5
-345 -19 -92 -76 -197 -143 -263 -61 -61 -172 -127 -231 -139 -114 -22 -225
-11 -303 28 -128 65 -223 176 -268 312 -26 81 -29 102 -29 224 1 186 33 288
124 392 125 142 325 195 522 137z m-441 -1189 c125 -104 296 -135 445 -79 28
10 77 41 110 69 72 59 88 61 231 25 122 -31 249 -90 307 -144 52 -48 113 -163
127 -240 14 -73 13 -277 -1 -304 -12 -24 -109 -127 -120 -127 -3 0 -9 89 -12
198 -8 215 -20 280 -62 330 -57 68 -183 127 -301 141 -54 6 -68 5 -91 -11
-118 -80 -233 -112 -378 -105 -115 6 -199 31 -277 83 -58 39 -103 44 -201 18
-122 -31 -224 -103 -259 -181 -19 -42 -37 -238 -38 -408 l-1 -80 -64 69 -65
68 0 148 c0 178 17 247 83 337 69 93 144 140 297 187 196 59 206 59 270 6z"/>
<path d="M5027 11159 c-164 -39 -257 -183 -257 -399 0 -151 33 -251 113 -337
51 -55 97 -79 173 -92 192 -30 354 93 404 308 16 68 8 239 -14 301 -22 61 -78
140 -119 167 -79 54 -202 75 -300 52z"/>
<path d="M2005 5945 c13 -122 48 -188 140 -265 101 -82 -193 -75 2938 -78
3103 -3 2881 -7 2985 65 97 67 144 147 160 277 l9 69 -90 -7 c-50 -3 -539 -6
-1088 -6 l-998 0 -32 -47 c-18 -27 -52 -71 -76 -100 -75 -89 -27 -84 -838 -81
-646 3 -713 5 -746 20 -56 26 -92 61 -145 138 l-48 70 -990 0 c-545 0 -1035 3
-1090 7 l-99 6 8 -68z"/>
<path d="M4768 5483 c6 -2 18 -2 25 0 6 3 1 5 -13 5 -14 0 -19 -2 -12 -5z"/>
<path d="M5898 5483 c7 -3 16 -2 19 1 4 3 -2 6 -13 5 -11 0 -14 -3 -6 -6z"/>
<path d="M6758 5483 c7 -3 16 -2 19 1 4 3 -2 6 -13 5 -11 0 -14 -3 -6 -6z"/>
<path d="M6798 5483 c7 -3 16 -2 19 1 4 3 -2 6 -13 5 -11 0 -14 -3 -6 -6z"/>
<path d="M6988 5483 c7 -3 16 -2 19 1 4 3 -2 6 -13 5 -11 0 -14 -3 -6 -6z"/>
<path d="M7258 5483 c7 -3 16 -2 19 1 4 3 -2 6 -13 5 -11 0 -14 -3 -6 -6z"/>
<path d="M7408 5483 c7 -3 16 -2 19 1 4 3 -2 6 -13 5 -11 0 -14 -3 -6 -6z"/>
<path d="M7598 5483 c6 -2 18 -2 25 0 6 3 1 5 -13 5 -14 0 -19 -2 -12 -5z"/>
<path d="M7653 5483 c9 -2 25 -2 35 0 9 3 1 5 -18 5 -19 0 -27 -2 -17 -5z"/>
<path d="M7748 5483 c6 -2 18 -2 25 0 6 3 1 5 -13 5 -14 0 -19 -2 -12 -5z"/>
<path d="M7808 5483 c6 -2 18 -2 25 0 6 3 1 5 -13 5 -14 0 -19 -2 -12 -5z"/>
<path d="M3076 4795 c-110 -39 -156 -118 -156 -267 0 -148 59 -240 177 -274
48 -14 67 -15 112 -6 141 30 213 146 198 318 -8 85 -32 138 -83 182 -68 60
-162 78 -248 47z"/>
<path d="M6005 4799 c-53 -20 -93 -58 -119 -113 -23 -48 -26 -68 -26 -158 0
-82 5 -112 21 -148 41 -92 107 -133 209 -134 80 0 138 28 187 92 44 58 56 109
51 218 -5 117 -32 175 -101 218 -38 24 -61 30 -120 32 -39 2 -85 -1 -102 -7z"/>
<path d="M7848 4796 c-64 -17 -116 -60 -142 -115 -17 -38 -21 -65 -21 -151 0
-94 3 -111 28 -161 73 -150 273 -171 378 -39 58 72 75 246 35 342 -23 54 -81
106 -139 123 -60 18 -77 18 -139 1z"/>
<path d="M7848 4143 c7 -3 16 -2 19 1 4 3 -2 6 -13 5 -11 0 -14 -3 -6 -6z"/>
<path d="M2220 4661 l0 -134 99 6 c111 6 152 21 181 70 35 57 19 140 -33 169
-12 7 -71 15 -135 18 l-112 5 0 -134z"/>
<path d="M2180 4150 c-9 -6 -10 -10 -3 -10 6 0 15 5 18 10 8 12 4 12 -15 0z"/>
<path d="M3840 4660 l0 -130 63 0 c104 1 147 14 184 54 28 30 33 43 33 84 0
92 -45 122 -185 122 l-95 0 0 -130z"/>
<path d="M4178 4143 c7 -3 16 -2 19 1 4 3 -2 6 -13 5 -11 0 -14 -3 -6 -6z"/>
<path d="M6658 4143 c6 -2 18 -2 25 0 6 3 1 5 -13 5 -14 0 -19 -2 -12 -5z"/>
<path d="M6748 4143 c29 -2 74 -2 100 0 26 2 2 3 -53 3 -55 0 -76 -1 -47 -3z"/>
<path d="M6953 4143 c15 -2 39 -2 55 0 15 2 2 4 -28 4 -30 0 -43 -2 -27 -4z"/>
</g>
</svg>
